<svg xmlns="http://www.w3.org/2000/svg" style="display:none">
	<symbol id="icon-mail" viewBox="0 0 24 24" fill="none" stroke="currentColor" stroke-width="2" stroke-linecap="round" stroke-linejoin="round">
		<path d="M4 4h16c1.1 0 2 .9 2 2v12c0 1.1-.9 2-2 2H4c-1.1 0-2-.9-2-2V6c0-1.1.9-2 2-2z"></path>
		<polyline points="22 6 12 13 2 6"></polyline>
	</symbol>
	<symbol id="icon-linkedin" viewBox="0 0 24 24" fill="none" stroke="currentColor" stroke-width="2" stroke-linecap="round" stroke-linejoin="round">
		<path d="M16 8a6 6 0 0 1 6 6v7h-4v-7a2 2 0 0 0-2-2 2 2 0 0 0-2 2v7h-4v-7a6 6 0 0 1 6-6z"></path>
		<rect x="2" y="9" width="4" height="12"></rect>
		<circle cx="4" cy="4" r="2"></circle>
	</symbol>
	<symbol id="icon-github" viewBox="0 0 24 24" fill="none" stroke="currentColor" stroke-width="2" stroke-linecap="round" stroke-linejoin="round">
		<path d="M9 19c-5 1.5-5-2.5-7-3m14 6v-3.87a3.37 3.37 0 0 0-.94-2.61c3.14-.35 6.44-1.54 6.44-7A5.44 5.44 0 0 0 20 4.77 5.07 5.07 0 0 0 19.91 1S18.73.65 16 2.48a13.38 13.38 0 0 0-7 0C6.27.65 5.09 1 5.09 1A5.07 5.07 0 0 0 5 4.77a5.44 5.44 0 0 0-1.5 3.78c0 5.42 3.3 6.61 6.44 7A3.37 3.37 0 0 0 9 18.13V22"></path>
	</symbol>
	<symbol id="icon-instagram" viewBox="0 0 24 24" fill="none" stroke="currentColor" stroke-width="2" stroke-linecap="round" stroke-linejoin="round">
		<rect x="2" y="2" width="20" height="20" rx="5" ry="5"></rect>
		<path d="M16 11.37A4 4 0 1 1 12.63 8 4 4 0 0 1 16 11.37z"></path>
		<line x1="17.5" y1="6.5" x2="17.5" y2="6.5"></line>
	</symbol>
	<symbol id="icon-code" viewBox="0 0 24 24" fill="none" stroke="currentColor" stroke-width="2" stroke-linecap="round" stroke-linejoin="round">
		<polyline points="16 18 22 12 16 6"></polyline>
		<polyline points="8 6 2 12 8 18"></polyline>
	</symbol>
	<symbol id="icon-chart" viewBox="0 0 24 24" fill="none" stroke="currentColor" stroke-width="2" stroke-linecap="round" stroke-linejoin="round">
		<line x1="18" y1="20" x2="18" y2="10"></line>
		<line x1="12" y1="20" x2="12" y2="4"></line>
		<line x1="6" y1="20" x2="6" y2="14"></line>
	</symbol>
	<symbol id="icon-layers" viewBox="0 0 24 24" fill="none" stroke="currentColor" stroke-width="2" stroke-linecap="round" stroke-linejoin="round">
		<polygon points="12 2 2 7 12 12 22 7 12 2"></polygon>
		<polyline points="2 17 12 22 22 17"></polyline>
		<polyline points="2 12 12 17 22 12"></polyline>
	</symbol>
	<symbol id="icon-diamond" viewBox="0 0 24 24" fill="currentColor">
		<rect x="6" y="6" width="12" height="12" rx="2" transform="rotate(45 12 12)"></rect>
	</symbol>
	<symbol id="icon-close" viewBox="0 0 24 24" fill="none" stroke="currentColor" stroke-width="2" stroke-linecap="round" stroke-linejoin="round">
		<line x1="18" y1="6" x2="6" y2="18"></line>
		<line x1="6" y1="6" x2="18" y2="18"></line>
	</symbol>
</svg>
